<svg xmlns="http://www.w3.org/2000/svg" width="21" height="31">
    <path fill="#FFF" fill-rule="evenodd" d="M18.847 18.354L10.5 30.467l-8.36-12.13C-.978 14.16-.525 7.266 3.122 3.602A10.34 10.34 0 0 1 10.5.531c2.786 0 5.407 1.091 7.378 3.071 3.646 3.664 4.1 10.558.969 14.752zM17.108 4.375a9.264 9.264 0 0 0-6.608-2.75 9.262 9.262 0 0 0-6.608 2.75C.6 7.682.195 13.908 3.023 17.698L10.5 28.546l7.464-10.831c2.841-3.807 2.436-10.033-.856-13.34zm-6.512 10.371c-2.1 0-3.809-1.717-3.809-3.827s1.709-3.827 3.809-3.827 3.808 1.717 3.808 3.827-1.708 3.827-3.808 3.827zm0-6.561a2.731 2.731 0 0 0-2.721 2.734 2.731 2.731 0 0 0 2.721 2.734 2.73 2.73 0 0 0 2.72-2.734 2.73 2.73 0 0 0-2.72-2.734z"/>
</svg>
